# xmcd
#
# Track frame offsets: 
#        150
#        28034
#        41764
#        56652
#        75416
#        110302
#        134947
#        152531
#        180307
#        192276
#
# Disc length: 2745 seconds
#
# Revision: 3
# Processed by: cddbd v1.5.2PL0 Copyright (c) Steve Scherf et al.
# Submitted via: ExactAudioCopy v1.0b3
#
DISCID=7e0ab70a
DTITLE=Lonely Kamel - Dust Devil
DYEAR=2011
DGENRE=Rock
TTITLE0=Grim Reefer
TTITLE1=Evil Man
TTITLE2=Blues For The Dead
TTITLE3=Rotten Seed
TTITLE4=Seventh Son
TTITLE5=The Prophet
TTITLE6=Ragnarokr
TTITLE7=Roadtrip With Lucifer
TTITLE8=Hard To Please
TTITLE9=Whorehouse Groove
EXTD=
EXTT0=
EXTT1=
EXTT2=
EXTT3=
EXTT4=
EXTT5=
EXTT6=
EXTT7=
EXTT8=
EXTT9=
PLAYORDER=
